<?xml version="1.0" encoding="UTF-8"?>
<svg width="393px" height="393px" viewBox="0 0 393 393" version="1.1" xmlns="http://www.w3.org/2000/svg" xmlns:xlink="http://www.w3.org/1999/xlink">
    <!-- Generator: Sketch 52.5 (67469) - http://www.bohemiancoding.com/sketch -->
    <title>Group</title>
    <desc>Created with Sketch.</desc>
    <g id="Page-2" stroke="none" stroke-width="1" fill="none" fill-rule="evenodd">
        <g id="Panda" transform="translate(-44.000000, -50.000000)">
            <g id="Group" transform="translate(44.000000, 50.000000)">
                <circle id="Oval" fill="#FFFFFF" cx="196.5" cy="196.5" r="196.5"></circle>
                <path d="M345.1568,153.30176 C345.1568,153.30176 383.846933,142.515627 365.505956,98.5865956 C365.505956,98.5865956 356.068089,75.1620267 322.8848,86.4891733 C322.8848,86.4891733 313.015763,90.4725878 300.073541,108.275966 C313.555922,115.339493 322.49539,121.083763 326.891945,125.508776" id="Fill-25" fill="#1A1919"></path>
                <path d="M95.14208,160.185884 C95.14208,160.185884 42.8907733,138.281956 29.1333333,166.602951 C29.1333333,166.602951 5.76849778,198.726969 38.8454044,221.634418 C38.8454044,221.634418 45.7774428,226.181309 71.3623419,226.64639 C76.0558362,226.731708 69.5496691,207.445166 76.9390079,189.376168" id="Fill-27" fill="#1A1919"></path>
                <path d="M287.278044,347.064178 C287.278044,347.064178 389.24,288.799716 353.638933,177.126258 C353.638933,177.126258 340.105067,76.4278044 216.065671,104.291982 C216.065671,104.291982 79.1870222,125.488213 72.0241422,209.496036 C72.0241422,209.496036 47.7473778,392.381867 250.056782,347.064178" id="Fill-29"></path>
                <path d="M289.291911,350.500267 C294.935289,347.268978 300.191822,343.235556 305.266311,339.190756 C317.133333,329.741511 327.691911,318.763093 336.771378,306.623573 C348.621333,290.786844 357.382222,272.575004 361.813867,253.276587 C367.4288,228.828587 365.557156,203.355449 358.508622,179.409778 C356.921422,174.021831 355.994133,168.4928 354.236267,163.132729 C350.731911,152.44672 345.589156,142.236302 338.836444,133.232498 C329.6432,120.962702 317.622578,111.103289 303.616533,104.792036 C284.245867,96.0618667 262.621262,94.2294756 241.650311,96.1597156 C229.523876,97.2758756 217.464569,99.7334756 205.54464,102.259342 C192.528462,105.017884 179.682951,108.637156 167.123022,113.024427 C133.139307,124.893724 96.8612622,143.565227 78.3922844,175.953209 C69.4675556,191.605049 67.15104,209.301476 67.1322667,226.986524 C67.1106489,247.976818 70.2861867,269.381262 78.08736,288.936818 C88.3723022,314.721138 107.09728,335.931022 132.722311,347.212089 C169.747876,363.505067 212.700693,359.460267 251.116053,350.904178 C256.127964,349.789156 254.002027,342.109156 248.99808,343.224178 C210.292018,351.848533 165.41408,355.984356 129.360178,336.750222 C106.205262,324.393387 90.7536711,302.896213 82.8205156,278.689991 C81.02112,273.201351 79.5880889,267.594951 78.4389333,261.935644 C77.8950756,259.255609 77.42688,256.560213 77.0150044,253.856284 C76.9188622,253.225387 76.82784,252.594489 76.7390933,251.963022 C76.7134933,251.78496 76.5689956,250.716587 76.71008,251.771307 C76.6685511,251.460693 76.6287289,251.15008 76.5889067,250.839467 C76.4193778,249.517938 76.2680533,248.194702 76.1275378,246.869191 C75.2326756,238.424036 74.92832,229.910044 75.1820444,221.421084 C75.2992356,217.502578 75.5074489,213.566436 75.9841778,209.672391 C77.94912,193.626311 83.9201778,179.318187 94.3848889,166.908444 C106.315058,152.761884 121.973156,142.245404 138.312213,133.838933 C153.302436,126.126507 169.198898,120.254436 185.369564,115.550862 C195.081636,112.72576 204.942187,110.304 214.900018,108.512 C220.742507,107.461262 226.526969,106.148836 232.400747,105.25056 C244.303609,103.430116 256.467022,102.879431 268.46944,103.915378 C285.929778,105.422933 302.876978,111.259733 316.860267,121.932658 C327.060444,129.718471 334.922489,139.93344 340.867378,151.566649 C343.404622,156.523947 344.599289,159.423004 346.391289,164.764302 C347.477867,167.994453 348.405156,171.283769 349.127644,174.613476 C349.520178,176.394667 349.781867,178.118969 350.322311,179.859769 C354.247644,192.492516 356.642667,205.563876 357.120533,218.788836 C358.565511,258.350507 340.656889,294.8032 312.730133,322.019413 C309.328178,325.332622 305.778311,328.501333 302.126044,331.5392 C301.301156,332.221867 300.470578,332.893156 299.634311,333.558756 C299.2816,333.8432 298.928889,334.121956 298.570489,334.4064 C298.399822,334.542933 298.223467,334.679467 298.047111,334.810311 C297.1824,335.487289 298.684267,334.326756 297.830933,334.980978 C296.442844,336.050489 295.032,337.097244 293.604089,338.115556 C290.907556,340.055467 288.154133,341.972622 285.269867,343.6224 C280.815467,346.176711 284.826133,353.060267 289.291911,350.500267" id="Fill-30" fill="#1A1919"></path>
                <path d="M330.980089,175.504356 C330.980089,175.504356 313.173867,133.96352 267.857884,146.372693 C267.857884,146.372693 245.737778,156.622364 255.986311,183.596231 C255.986311,183.596231 267.316302,219.741724 310.477333,213.269476 C310.477333,213.269476 340.150578,209.496036 330.980089,175.504356" id="Fill-31" fill="#1A1919"></path>
                <path d="M154.026631,179.051378 C154.026631,179.051378 193.949547,185.754027 188.552498,222.976996 C188.552498,222.976996 177.221938,267.757084 132.441849,266.140871 C132.441849,266.140871 97.9188267,262.9056 119.495076,199.244658 C119.495076,199.244658 125.970738,176.12672 154.026631,179.051378" id="Fill-33" fill="#1A1919"></path>
                <path d="M210.359147,212.496924 C211.886613,217.815467 220.854009,219.914098 230.385742,217.167502 C239.920889,214.428302 246.40736,207.8912 244.877618,202.57152 C243.344462,197.251271 236.856853,197.449813 227.319431,200.189582 C217.787698,202.931058 208.829973,207.176676 210.359147,212.496924" id="Fill-35" fill="#1A1919"></path>
                <path d="M258.314773,221.483662 C255.67968,226.330596 251.544427,230.650738 247.099698,233.846187 C236.464889,241.492622 223.751929,240.64896 212.483947,234.753564 C210.211236,233.564587 208.197938,237.001244 210.474062,238.191929 C222.700622,244.589653 236.44896,245.645511 248.279573,237.856284 C253.653298,234.318933 258.658382,229.185849 261.753707,223.494116 C262.980231,221.237333 259.541867,219.227449 258.314773,221.483662" id="Fill-37" fill="#1A1919"></path>
                <path d="M273.250951,170.920249 C273.250951,175.836018 277.6752,179.826204 283.130844,179.826204 C288.586489,179.826204 293.006756,175.836018 293.006756,170.920249 C293.006756,166.003911 288.586489,162.018276 283.130844,162.018276 C277.6752,162.018276 273.250951,166.003911 273.250951,170.920249" id="Fill-38" fill="#FFFFFE"></path>
                <path d="M148.090844,209.225244 C148.090844,214.439111 152.920711,218.665387 158.879822,218.665387 C164.838364,218.665387 169.669938,214.439111 169.669938,209.225244 C169.669938,204.009102 164.838364,199.782827 158.879822,199.782827 C152.920711,199.782827 148.090844,204.009102 148.090844,209.225244" id="Fill-39" fill="#FFFFFE"></path>
                <path d="M92.0635051,138.836073 C127.009178,129.481339 186.23306,111.001221 269.735152,83.3957184" id="Path" stroke="#1A1919" stroke-width="8"></path>
                <polygon id="Path-2" fill="#1A1919" points="132.38949 128.460116 112.400991 62.7124396 202.497447 33.1859306 228.361584 95.4629364"></polygon>
            </g>
        </g>
    </g>
</svg>